<svg xmlns="http://www.w3.org/2000/svg" xmlns:xlink="http://www.w3.org/1999/xlink" width="500" zoomAndPan="magnify" viewBox="0 0 375 67.499998" height="90" preserveAspectRatio="xMidYMid meet" version="1.0"><defs><g/><clipPath id="166fefb49c"><path d="M 17 11.859375 L 46 11.859375 L 46 37 L 17 37 Z M 17 11.859375 " clip-rule="nonzero"/></clipPath><clipPath id="0b1fca30d0"><path d="M 34 21 L 58.601562 21 L 58.601562 56.527344 L 34 56.527344 Z M 34 21 " clip-rule="nonzero"/></clipPath><clipPath id="97908d0e89"><path d="M 4.253906 21 L 29 21 L 29 56.527344 L 4.253906 56.527344 Z M 4.253906 21 " clip-rule="nonzero"/></clipPath></defs><g clip-path="url(#166fefb49c)"><path fill="#2563eb" d="M 45.230469 20.484375 C 45.097656 20.269531 44.796875 19.976562 44.582031 19.839844 L 41.460938 17.90625 C 41.246094 17.773438 41.054688 17.449219 41.054688 17.183594 L 41.054688 13.101562 C 41.054688 12.832031 40.839844 12.644531 40.59375 12.644531 L 37.746094 12.644531 C 37.476562 12.644531 37.285156 12.859375 37.285156 13.101562 L 37.285156 14.847656 C 37.285156 15.113281 37.097656 15.195312 36.878906 15.0625 L 32.378906 12.269531 C 32.160156 12.132812 31.808594 11.945312 31.617188 11.867188 C 31.617188 11.867188 31.617188 11.867188 31.402344 11.867188 C 31.183594 11.867188 31.183594 11.867188 31.183594 11.867188 C 30.992188 11.945312 30.640625 12.132812 30.425781 12.269531 L 18.222656 19.839844 C 18.003906 19.976562 17.707031 20.269531 17.570312 20.484375 C 17.570312 20.484375 17.488281 20.621094 17.515625 20.726562 C 17.542969 20.835938 17.707031 20.914062 17.707031 20.914062 C 17.949219 21.023438 18.355469 21.101562 18.601562 21.101562 L 19.117188 21.101562 C 19.386719 21.101562 19.578125 21.316406 19.578125 21.558594 L 19.578125 35.390625 C 19.578125 35.65625 19.65625 36.035156 19.765625 36.273438 C 19.875 36.488281 20.632812 36.679688 20.90625 36.679688 L 41.789062 36.679688 C 42.058594 36.679688 42.4375 36.597656 42.683594 36.488281 C 42.898438 36.382812 43.089844 35.628906 43.089844 35.390625 L 43.089844 21.585938 C 43.089844 21.316406 43.304688 21.128906 43.550781 21.128906 L 44.175781 21.128906 C 44.445312 21.128906 44.851562 21.050781 45.070312 20.941406 C 45.070312 20.941406 45.203125 20.859375 45.257812 20.753906 C 45.3125 20.621094 45.230469 20.484375 45.230469 20.484375 Z M 43.304688 20.242188 C 43.171875 20.242188 42.871094 20.324219 42.65625 20.433594 C 42.4375 20.539062 42.25 21.289062 42.25 21.558594 L 42.25 35.441406 C 42.25 35.710938 42.03125 35.898438 41.789062 35.898438 L 20.960938 35.898438 C 20.6875 35.898438 20.5 35.683594 20.5 35.441406 L 20.5 21.53125 C 20.5 21.265625 20.417969 20.886719 20.308594 20.644531 C 20.199219 20.40625 19.578125 20.21875 19.46875 20.21875 C 19.359375 20.21875 19.46875 20.109375 19.683594 19.976562 L 30.914062 12.992188 C 31.128906 12.859375 31.347656 12.726562 31.347656 12.726562 C 31.347656 12.726562 31.347656 12.726562 31.402344 12.726562 C 31.453125 12.726562 31.453125 12.726562 31.453125 12.726562 C 31.480469 12.726562 31.671875 12.859375 31.890625 12.992188 L 43.117188 19.976562 C 43.359375 20.109375 43.441406 20.242188 43.304688 20.242188 Z M 43.304688 20.242188 " fill-opacity="1" fill-rule="nonzero"/></g><path fill="#2563eb" d="M 39.183594 27.386719 C 39.183594 27.332031 39.15625 27.304688 39.183594 27.386719 Z M 39.183594 27.386719 " fill-opacity="1" fill-rule="nonzero"/><path fill="#2563eb" d="M 39.183594 27.386719 C 39.183594 27.359375 37.609375 22.605469 37.609375 22.605469 C 37.585938 22.472656 37.421875 22.363281 37.148438 22.285156 C 36.796875 22.847656 36.148438 23.25 35.414062 23.25 C 34.683594 23.25 34.03125 22.875 33.679688 22.285156 C 33.40625 22.363281 33.21875 22.472656 33.191406 22.605469 L 32.324219 25.238281 C 32.566406 25.9375 32.785156 26.609375 32.972656 27.144531 C 33.027344 27.332031 33.027344 27.546875 32.917969 27.734375 C 32.8125 27.949219 32.59375 28.085938 32.351562 28.164062 C 32.269531 28.191406 32.1875 28.191406 32.105469 28.191406 C 32.484375 28.300781 32.863281 28.085938 32.972656 27.761719 L 34.003906 24.621094 L 33.570312 26.769531 C 33.300781 27.519531 32.402344 31.308594 32.457031 32.058594 C 32.457031 32.167969 32.945312 32.191406 33.488281 32.21875 L 33.351562 34.503906 C 33.328125 34.90625 33.679688 35.253906 34.113281 35.253906 C 34.546875 35.28125 34.925781 34.960938 34.953125 34.554688 L 35.117188 32.246094 L 35.605469 32.21875 L 35.792969 34.554688 C 35.820312 34.960938 36.171875 35.28125 36.636719 35.253906 C 37.070312 35.226562 37.421875 34.90625 37.394531 34.503906 L 37.285156 32.113281 C 37.828125 32.058594 38.019531 32.140625 38.046875 32.03125 C 38.234375 31.496094 37.558594 27.441406 37.257812 26.714844 L 36.742188 24.59375 L 37.773438 27.707031 C 37.882812 28.058594 38.289062 28.246094 38.640625 28.136719 C 39.265625 28.03125 39.210938 27.546875 39.183594 27.386719 Z M 39.183594 27.386719 " fill-opacity="1" fill-rule="nonzero"/><path fill="#2563eb" d="M 35.628906 19.355469 C 35.878906 19.382812 36.117188 19.457031 36.335938 19.578125 C 36.554688 19.699219 36.742188 19.859375 36.898438 20.054688 C 37.058594 20.25 37.167969 20.464844 37.238281 20.707031 C 37.308594 20.945312 37.328125 21.1875 37.296875 21.4375 C 37.269531 21.683594 37.195312 21.917969 37.070312 22.136719 C 36.949219 22.351562 36.789062 22.539062 36.59375 22.695312 C 36.394531 22.847656 36.175781 22.960938 35.933594 23.027344 C 35.691406 23.097656 35.445312 23.117188 35.195312 23.089844 C 34.945312 23.058594 34.710938 22.984375 34.488281 22.863281 C 34.269531 22.742188 34.082031 22.585938 33.925781 22.390625 C 33.769531 22.195312 33.65625 21.976562 33.585938 21.738281 C 33.519531 21.496094 33.5 21.253906 33.527344 21.003906 C 33.554688 20.757812 33.632812 20.527344 33.753906 20.308594 C 33.875 20.089844 34.035156 19.902344 34.234375 19.75 C 34.429688 19.59375 34.648438 19.480469 34.890625 19.414062 C 35.132812 19.34375 35.378906 19.324219 35.628906 19.355469 Z M 35.628906 19.355469 " fill-opacity="1" fill-rule="nonzero"/><path fill="#2563eb" d="M 39.347656 27.546875 C 39.347656 27.441406 39.320312 27.359375 39.292969 27.253906 C 39.535156 27.171875 39.808594 27.144531 40.023438 27.359375 C 40.023438 27.574219 39.996094 27.683594 39.996094 27.921875 C 39.78125 27.871094 39.535156 27.84375 39.320312 27.84375 C 39.320312 27.734375 39.347656 27.628906 39.347656 27.546875 Z M 39.347656 27.546875 " fill-opacity="1" fill-rule="nonzero"/><path fill="#2563eb" d="M 38.640625 28.351562 C 38.804688 28.328125 38.96875 28.246094 39.074219 28.136719 C 39.074219 28.136719 39.074219 28.136719 39.101562 28.113281 L 39.15625 34.769531 L 39.265625 35.28125 L 38.535156 35.28125 L 38.640625 34.746094 Z M 38.640625 28.351562 " fill-opacity="1" fill-rule="nonzero"/><path fill="#2563eb" d="M 24.566406 27.304688 C 24.566406 27.171875 24.59375 27.0625 24.648438 26.957031 C 24.375 26.875 24.078125 26.796875 23.863281 27.039062 C 23.863281 27.277344 23.890625 27.386719 23.890625 27.628906 C 24.132812 27.574219 24.375 27.546875 24.621094 27.546875 C 24.566406 27.46875 24.566406 27.386719 24.566406 27.304688 Z M 24.566406 27.304688 " fill-opacity="1" fill-rule="nonzero"/><path fill="#2563eb" d="M 25.273438 28.164062 C 25.109375 28.136719 24.945312 28.058594 24.835938 27.921875 C 24.8125 27.898438 24.8125 27.898438 24.785156 27.871094 L 24.703125 34.851562 L 24.59375 35.390625 L 25.351562 35.390625 L 25.246094 34.824219 L 25.246094 28.164062 Z M 25.273438 28.164062 " fill-opacity="1" fill-rule="nonzero"/><path fill="#2563eb" d="M 32.839844 27.171875 C 32.839844 27.171875 32.511719 26.203125 32.132812 25.105469 C 31.671875 23.734375 31.15625 22.203125 31.15625 22.175781 C 31.128906 22.042969 30.941406 21.910156 30.585938 21.828125 C 30.207031 22.417969 29.558594 22.820312 28.769531 22.820312 C 28.011719 22.820312 27.332031 22.417969 26.980469 21.828125 C 26.65625 21.933594 26.464844 22.042969 26.410156 22.175781 L 24.757812 27.171875 C 24.648438 27.519531 24.863281 27.898438 25.273438 28.003906 C 25.679688 28.113281 26.085938 27.898438 26.222656 27.546875 L 27.304688 24.296875 C 27.304688 24.296875 26.761719 26.125 26.683594 27.253906 C 26.574219 28.703125 26.601562 34.636719 26.601562 34.636719 C 26.574219 35.066406 26.953125 35.414062 27.414062 35.441406 C 27.902344 35.46875 28.28125 35.121094 28.308594 34.71875 L 28.742188 29.132812 L 29.257812 34.691406 C 29.285156 35.121094 29.664062 35.441406 30.152344 35.414062 C 30.613281 35.390625 30.992188 35.039062 30.96875 34.609375 C 30.96875 34.609375 30.941406 28.542969 30.859375 27.144531 C 30.777344 25.964844 30.289062 24.296875 30.289062 24.296875 L 31.292969 27.277344 L 31.375 27.546875 C 31.480469 27.898438 31.917969 28.113281 32.324219 28.003906 C 32.730469 27.898438 32.945312 27.519531 32.839844 27.171875 Z M 32.839844 27.171875 " fill-opacity="1" fill-rule="nonzero"/><path fill="#2563eb" d="M 30.777344 20.753906 C 30.777344 21.015625 30.726562 21.265625 30.625 21.503906 C 30.527344 21.746094 30.382812 21.957031 30.195312 22.140625 C 30.011719 22.324219 29.796875 22.464844 29.554688 22.566406 C 29.3125 22.664062 29.058594 22.714844 28.796875 22.714844 C 28.535156 22.714844 28.28125 22.664062 28.039062 22.566406 C 27.796875 22.464844 27.582031 22.324219 27.398438 22.140625 C 27.210938 21.957031 27.070312 21.746094 26.96875 21.503906 C 26.867188 21.265625 26.816406 21.015625 26.816406 20.753906 C 26.816406 20.492188 26.867188 20.242188 26.96875 20.003906 C 27.070312 19.761719 27.210938 19.550781 27.398438 19.367188 C 27.582031 19.183594 27.796875 19.042969 28.039062 18.941406 C 28.28125 18.84375 28.535156 18.792969 28.796875 18.792969 C 29.058594 18.792969 29.3125 18.84375 29.554688 18.941406 C 29.796875 19.042969 30.011719 19.183594 30.195312 19.367188 C 30.382812 19.550781 30.527344 19.761719 30.625 20.003906 C 30.726562 20.242188 30.777344 20.492188 30.777344 20.753906 Z M 30.777344 20.753906 " fill-opacity="1" fill-rule="nonzero"/><g clip-path="url(#0b1fca30d0)"><path fill="#2563eb" d="M 37.585938 43.042969 C 38.777344 41.457031 42.628906 38.261719 44.636719 36.8125 C 45.558594 36.140625 49.488281 32.488281 49.488281 32.488281 C 50.546875 31.226562 51.496094 30.929688 51.496094 30.929688 C 53.367188 30.5 53.285156 32.058594 53.285156 32.058594 C 52.851562 34.152344 51.875 35.039062 51.089844 35.820312 C 50.4375 36.464844 49.679688 37.296875 48.894531 38.074219 C 48.648438 38.316406 48.457031 39.039062 48.484375 38.988281 C 49.355469 37.5625 51.441406 36.140625 52.363281 34.960938 C 53.285156 33.75 53.558594 32.515625 53.558594 32.515625 L 53.640625 32.113281 C 53.640625 31.925781 53.613281 31.738281 53.613281 31.546875 C 53.503906 31.414062 53.449219 31.335938 53.449219 31.335938 C 53.367188 31.171875 53.257812 31.011719 53.097656 30.878906 C 52.878906 30.691406 52.609375 30.582031 52.308594 30.554688 C 52.582031 28.164062 53.015625 25.828125 53.015625 25.828125 C 53.152344 24.835938 53.53125 24.351562 53.882812 24.136719 C 54.207031 22.6875 55.050781 22.578125 55.320312 22.578125 C 55.726562 21.210938 56.8125 21.425781 56.8125 21.425781 C 58.601562 21.503906 58.574219 23.171875 58.574219 23.171875 C 58.601562 24.726562 57.273438 36.222656 57.054688 38.019531 C 56.839844 39.550781 55.890625 40.382812 55.890625 40.382812 C 55.890625 40.382812 47.429688 48.035156 46.777344 48.894531 C 46.046875 49.835938 45.449219 50.882812 45.449219 50.882812 L 41.816406 56.496094 L 34.492188 52.117188 L 36.253906 48.011719 C 36.039062 44.734375 36.933594 43.929688 37.585938 43.042969 Z M 37.585938 43.042969 " fill-opacity="1" fill-rule="nonzero"/></g><g clip-path="url(#97908d0e89)"><path fill="#2563eb" d="M 25.21875 43.042969 C 24.023438 41.457031 20.171875 38.261719 18.167969 36.8125 C 17.246094 36.140625 13.3125 32.488281 13.3125 32.488281 C 12.253906 31.226562 11.304688 30.929688 11.304688 30.929688 C 9.433594 30.5 9.515625 32.058594 9.515625 32.058594 C 9.949219 34.152344 10.925781 35.039062 11.710938 35.820312 C 12.363281 36.464844 13.121094 37.296875 13.910156 38.074219 C 14.152344 38.316406 14.34375 39.039062 14.316406 38.988281 C 13.449219 37.5625 11.359375 36.140625 10.4375 34.960938 C 9.515625 33.75 9.246094 32.515625 9.246094 32.515625 L 9.164062 32.113281 C 9.164062 31.925781 9.191406 31.738281 9.191406 31.546875 C 9.296875 31.414062 9.351562 31.335938 9.351562 31.335938 C 9.433594 31.171875 9.542969 31.011719 9.707031 30.878906 C 9.921875 30.691406 10.191406 30.582031 10.492188 30.554688 C 10.21875 28.164062 9.785156 25.828125 9.785156 25.828125 C 9.652344 24.835938 9.269531 24.351562 8.917969 24.136719 C 8.648438 22.714844 7.808594 22.605469 7.535156 22.605469 C 7.128906 21.238281 6.042969 21.453125 6.042969 21.453125 C 4.253906 21.53125 4.28125 23.199219 4.28125 23.199219 C 4.253906 24.753906 5.582031 36.25 5.800781 38.046875 C 6.015625 39.578125 6.964844 40.410156 6.964844 40.410156 C 6.964844 40.410156 15.425781 48.0625 16.078125 48.921875 C 16.808594 49.863281 17.40625 50.910156 17.40625 50.910156 L 21.042969 56.523438 L 28.363281 52.144531 L 26.601562 48.035156 C 26.761719 44.734375 25.867188 43.929688 25.21875 43.042969 Z M 25.21875 43.042969 " fill-opacity="1" fill-rule="nonzero"/></g><g fill="#2563eb" fill-opacity="1"><g transform="translate(69.656405, 46.706139)"><g><path d="M 19.898438 0 L 22.503906 0 L 13.335938 -24.875 L 10.414062 -24.875 L 1.25 0 L 3.871094 0 L 6.117188 -6.242188 L 17.652344 -6.242188 Z M 6.9375 -8.503906 L 11.875 -22.269531 L 16.832031 -8.503906 Z M 6.9375 -8.503906 "/></g></g></g><g fill="#2563eb" fill-opacity="1"><g transform="translate(93.405555, 46.706139)"><g><path d="M 11.644531 0.339844 C 16.296875 0.339844 20.257812 -1.835938 20.257812 -6.617188 C 20.257812 -11.660156 15.691406 -12.75 11.574219 -13.765625 C 8.21875 -14.605469 5.261719 -15.441406 5.261719 -18.472656 C 5.261719 -21.753906 8.167969 -22.984375 10.894531 -22.984375 C 13.960938 -22.984375 16.671875 -21.648438 17.4375 -18.742188 L 19.792969 -19.347656 C 18.882812 -23.324219 15.226562 -25.214844 10.839844 -25.214844 C 6.617188 -25.214844 2.765625 -23.054688 2.765625 -18.457031 C 2.765625 -13.871094 6.617188 -12.75 10.589844 -11.734375 C 14.195312 -10.804688 17.6875 -9.949219 17.742188 -6.578125 C 17.8125 -3.066406 14.710938 -1.890625 11.699219 -1.890625 C 8.058594 -1.890625 5.261719 -3.65625 4.492188 -6.632812 L 2.070312 -6.042969 C 2.960938 -2.105469 6.527344 0.339844 11.644531 0.339844 Z M 11.644531 0.339844 "/></g></g></g><g fill="#2563eb" fill-opacity="1"><g transform="translate(115.906626, 46.706139)"><g><path d="M 11.644531 0.339844 C 16.296875 0.339844 20.257812 -1.835938 20.257812 -6.617188 C 20.257812 -11.660156 15.691406 -12.75 11.574219 -13.765625 C 8.21875 -14.605469 5.261719 -15.441406 5.261719 -18.472656 C 5.261719 -21.753906 8.167969 -22.984375 10.894531 -22.984375 C 13.960938 -22.984375 16.671875 -21.648438 17.4375 -18.742188 L 19.792969 -19.347656 C 18.882812 -23.324219 15.226562 -25.214844 10.839844 -25.214844 C 6.617188 -25.214844 2.765625 -23.054688 2.765625 -18.457031 C 2.765625 -13.871094 6.617188 -12.75 10.589844 -11.734375 C 14.195312 -10.804688 17.6875 -9.949219 17.742188 -6.578125 C 17.8125 -3.066406 14.710938 -1.890625 11.699219 -1.890625 C 8.058594 -1.890625 5.261719 -3.65625 4.492188 -6.632812 L 2.070312 -6.042969 C 2.960938 -2.105469 6.527344 0.339844 11.644531 0.339844 Z M 11.644531 0.339844 "/></g></g></g><g fill="#2563eb" fill-opacity="1"><g transform="translate(138.407697, 46.706139)"><g><path d="M 4.136719 0 L 6.617188 0 L 6.617188 -24.875 L 4.136719 -24.875 Z M 4.136719 0 "/></g></g></g><g fill="#2563eb" fill-opacity="1"><g transform="translate(149.159014, 46.706139)"><g><path d="M 11.644531 0.339844 C 16.296875 0.339844 20.257812 -1.835938 20.257812 -6.617188 C 20.257812 -11.660156 15.691406 -12.75 11.574219 -13.765625 C 8.21875 -14.605469 5.261719 -15.441406 5.261719 -18.472656 C 5.261719 -21.753906 8.167969 -22.984375 10.894531 -22.984375 C 13.960938 -22.984375 16.671875 -21.648438 17.4375 -18.742188 L 19.792969 -19.347656 C 18.882812 -23.324219 15.226562 -25.214844 10.839844 -25.214844 C 6.617188 -25.214844 2.765625 -23.054688 2.765625 -18.457031 C 2.765625 -13.871094 6.617188 -12.75 10.589844 -11.734375 C 14.195312 -10.804688 17.6875 -9.949219 17.742188 -6.578125 C 17.8125 -3.066406 14.710938 -1.890625 11.699219 -1.890625 C 8.058594 -1.890625 5.261719 -3.65625 4.492188 -6.632812 L 2.070312 -6.042969 C 2.960938 -2.105469 6.527344 0.339844 11.644531 0.339844 Z M 11.644531 0.339844 "/></g></g></g><g fill="#2563eb" fill-opacity="1"><g transform="translate(171.660085, 46.706139)"><g><path d="M 16.65625 -24.875 L 1.105469 -24.875 L 1.105469 -22.59375 L 7.648438 -22.59375 L 7.648438 0 L 10.109375 0 L 10.109375 -22.59375 L 16.65625 -22.59375 Z M 16.65625 -24.875 "/></g></g></g><g fill="#2563eb" fill-opacity="1"><g transform="translate(189.418458, 46.706139)"><g><path d="M 17.117188 -22.59375 L 17.117188 -24.875 L 4.136719 -24.875 L 4.136719 0 L 17.117188 0 L 17.117188 -2.28125 L 6.703125 -2.28125 L 6.703125 -11.289062 L 15.851562 -11.289062 L 15.851562 -13.550781 L 6.703125 -13.550781 L 6.703125 -22.59375 Z M 17.117188 -22.59375 "/></g></g></g><g fill="#2563eb" fill-opacity="1"><g transform="translate(208.692368, 46.706139)"><g><path d="M 4.136719 0 L 11.820312 0 C 19.3125 0 23.179688 -5.207031 23.179688 -12.445312 C 23.179688 -19.667969 19.3125 -24.875 11.820312 -24.875 L 4.136719 -24.875 Z M 6.617188 -2.28125 L 6.617188 -22.59375 L 11.769531 -22.59375 C 17.742188 -22.59375 20.628906 -18.492188 20.628906 -12.445312 C 20.628906 -6.382812 17.742188 -2.28125 11.769531 -2.28125 Z M 6.617188 -2.28125 "/></g></g></g><g fill="#2563eb" fill-opacity="1"><g transform="translate(234.54409, 46.706139)"><g><path d="M 19.203125 -20.308594 L 19.203125 -26.210938 L 2.925781 -26.210938 L 2.925781 0 L 9.71875 0 L 9.71875 -10.183594 L 17.847656 -10.183594 L 17.847656 -16.03125 L 9.71875 -16.03125 L 9.71875 -20.308594 Z M 19.203125 -20.308594 "/></g></g></g><g fill="#2563eb" fill-opacity="1"><g transform="translate(254.852122, 46.706139)"><g><path d="M 2.925781 0 L 9.71875 0 L 9.71875 -26.210938 L 2.925781 -26.210938 Z M 2.925781 0 "/></g></g></g><g fill="#2563eb" fill-opacity="1"><g transform="translate(267.493387, 46.706139)"><g><path d="M 21.003906 -26.210938 L 21.003906 -9.289062 L 10.914062 -26.210938 L 2.925781 -26.210938 L 2.925781 0 L 9.71875 0 L 9.71875 -17.011719 L 19.722656 0 L 27.800781 0 L 27.800781 -26.210938 Z M 21.003906 -26.210938 "/></g></g></g><g fill="#2563eb" fill-opacity="1"><g transform="translate(298.196116, 46.706139)"><g><path d="M 2.925781 0 L 13.070312 0 C 21.648438 0 25.820312 -5.152344 25.820312 -13.105469 C 25.820312 -21.078125 21.648438 -26.210938 13.070312 -26.210938 L 2.925781 -26.210938 Z M 9.71875 -5.957031 L 9.71875 -20.308594 L 12.714844 -20.308594 C 16.832031 -20.308594 18.667969 -17.902344 18.667969 -13.105469 C 18.667969 -8.328125 16.832031 -5.957031 12.714844 -5.957031 Z M 9.71875 -5.957031 "/></g></g></g><g fill="#2563eb" fill-opacity="1"><g transform="translate(325.297248, 46.706139)"><g><path d="M 18.847656 -20.308594 L 18.847656 -26.210938 L 2.925781 -26.210938 L 2.925781 0 L 18.847656 0 L 18.847656 -5.957031 L 9.71875 -5.957031 L 9.71875 -10.183594 L 17.847656 -10.183594 L 17.847656 -16.03125 L 9.71875 -16.03125 L 9.71875 -20.308594 Z M 18.847656 -20.308594 "/></g></g></g><g fill="#2563eb" fill-opacity="1"><g transform="translate(346.336285, 46.706139)"><g><path d="M 16.546875 0 L 24.605469 0 L 16.796875 -10.714844 C 17.402344 -10.878906 17.902344 -11.074219 18.367188 -11.289062 C 21.21875 -12.640625 22.34375 -15.191406 22.34375 -18.007812 C 22.34375 -21.328125 21.21875 -23.875 18.402344 -25.230469 C 17.011719 -25.855469 15.226562 -26.210938 11.910156 -26.210938 L 2.925781 -26.210938 L 2.925781 0 L 9.71875 0 L 9.71875 -10.253906 L 9.773438 -10.253906 Z M 14.53125 -20.007812 C 15.121094 -19.578125 15.550781 -18.8125 15.550781 -17.527344 C 15.550781 -16.246094 15.15625 -15.511719 14.566406 -15.085938 C 13.800781 -14.496094 12.714844 -14.496094 10.914062 -14.496094 L 9.71875 -14.496094 L 9.71875 -20.59375 L 10.914062 -20.59375 C 12.640625 -20.59375 13.730469 -20.59375 14.53125 -20.007812 Z M 14.53125 -20.007812 "/></g></g></g></svg>